/* XPM */
static char * DecisionLogicIcon_xpm[] = {
"32 32 3 1",
" 	c None",
".	c #FFFF00",
"+	c #000000",
"................................",
"................................",
"................................",
"................................",
".......+++++++++++++............",
".......+............++..........",
".......+..............++........",
".......+................+.......",
".......+.................+......",
"++++++++.................+......",
"++++++++..................+.....",
".......+..................+.....",
".......+...................+....",
".......+...................+....",
".......+...................+++++",
".......+...................+++++",
".......+...................+....",
".......+...................+....",
".......+..................+.....",
".......+..................+.....",
"++++++++.................+......",
"++++++++.................+......",
".......+................+.......",
".......+..............++........",
".......+............++..........",
".......+++++++++++++............",
"................................",
"................................",
"................................",
"................................",
"................................",
"................................"};
